inDegrees=yes
name=ik_data_2024_11_07_17_14
DataType=double
version=3
OpenSimVersion=4.5.1
endheader
time	pelvis_tilt	pelvis_list	pelvis_rotation	pelvis_tx	pelvis_ty	pelvis_tz	hip_flexion_r	hip_adduction_r	hip_rotation_r	knee_angle_r	knee_angle_r_beta	ankle_angle_r	subtalar_angle_r	mtp_angle_r	hip_flexion_l	hip_adduction_l	hip_rotation_l	knee_angle_l	knee_angle_l_beta	ankle_angle_l	subtalar_angle_l	mtp_angle_l	lumbar_extension	lumbar_bending	lumbar_rotation	arm_flex_r	arm_add_r	arm_rot_r	elbow_flex_r	pro_sup_r	wrist_flex_r	wrist_dev_r	arm_flex_l	arm_add_l	arm_rot_l	elbow_flex_l	pro_sup_l	wrist_flex_l	wrist_dev_l
75.56	0.1189175612850863	-0.1542298689222154	-95.20493050313102	0	0.9399999999999999	0	0.1700528617948614	-0.05143475468004895	-0.1474316580964596	0.8207694065466572	0.01432512854387907	-5.111101633151845	0	0	0.1278718238385502	0.1153157096580485	-0.06528675077314018	0.5239391851390676	0.009144463860892873	-5.111101633151845	0	0	0	0	0	0	-8.72582512878258	0	72.37193811669692	46.70936192826866	0	0	0	-8.72582512878258	0	72.37193811669692	46.70936192826866	0	0
76.779	0.3161834421570267	-0.1426906013807226	-95.2042879234848	0	0.9399999999999999	0	0.1785619761396262	-0.1388746179835829	-0.147793491278074	0.8409564506859726	0.01467745893035555	-5.111007344153433	0	0	0.1686447768919004	0.3299728945833932	-0.06922062090967898	0.5277045121888758	0.009210181215326432	-5.111007344153433	0	0	0	0	0	0	-8.726438986371296	0	72.37243602173787	46.7084761184346	0	0	0	-8.726438986371296	0	72.37243602173787	46.7084761184346	0	0
78.229	0.2675374388396508	-0.0142301071822248	-95.21764577109712	0	0.9399999999999999	0	0.2635149812084506	-0.06649920748328227	-0.1301639814667229	0.8164672857032319	0.01425004237034262	-5.110885244204002	0	0	0.2802353718590511	0.2575210238553465	-0.07665375592235135	0.5227944220815313	0.009124483976383668	-5.110885244204002	0	0	0	0	0	0	-8.727242028693931	0	72.37308685947228	46.7073237836097	0	0	0	-8.727242028693931	0	72.37308685947228	46.7073237836097	0	0
79.188	0.2717909363264888	0.007047021372384658	-95.22006852027859	0	0.9399999999999999	0	0.2501813589658782	-0.035749789772127	-0.1335684248090546	0.8205890018565961	0.01432197988805146	-5.11085717194757	0	0	0.3111326382888116	0.2677589725894208	-0.08367769198048904	0.5482787690866054	0.009569269739342967	-5.11085717194757	0	0	0	0	0	0	-8.727439336928132	0	72.37324424590096	46.70705376293407	0	0	0	-8.727439336928132	0	72.37324424590096	46.70705376293407	0	0
80.97199999999999	0.2738771203634494	0.08497784444432196	-95.22691680462148	0	0.9399999999999999	0	0.3367419660633489	-0.04091901405579045	-0.1098683974472987	0.7492288701216115	0.01307651063461909	-5.110747817976557	0	0	0.3744585436636086	0.2565240863137905	-0.0847902427570178	0.5122903777102426	0.008941153817329102	-5.110747817976557	0	0	0	0	0	0	-8.728152055853371	0	72.37382504185405	46.70602116190575	0	0	0	-8.728152055853371	0	72.37382504185405	46.70602116190575	0	0
82.203	0.1185542581675364	0.01062450609087172	-95.22382494952878	0	0.9399999999999999	0	0.2032111897279594	0.09170527487386576	-0.1098415711611379	0.7212784112036299	0.0125886830990569	-5.110591084328688	0	0	0.2957724607870658	0.1111243271035631	-0.07638933674732834	0.5192894269991244	0.009063310271929458	-5.110591084328688	0	0	0	0	0	0	-8.729172518807314	0	72.37465419266303	46.70454602313652	0	0	0	-8.729172518807314	0	72.37465419266303	46.70454602313652	0	0
83.374	0.0477740284655763	0.01205321720409367	-95.22081105703116	0	0.9399999999999999	0	0.2418162361374475	0.1011795100810759	-0.1069909034153669	0.6884175422780006	0.01201515274123837	-5.110499398919924	0	0	0.280642913390193	0.03400428681077757	-0.07912528493436914	0.5170145521397864	0.009023606215563168	-5.110499398919924	0	0	0	0	0	0	-8.729763094630909	0	72.37513538840038	46.70368556807966	0	0	0	-8.729763094630909	0	72.37513538840038	46.70368556807966	0	0
85.19499999999999	0.0922177955810151	0.09893488489326699	-95.23325256585308	0	0.9399999999999999	0	0.3516419305454866	0.09119222954007895	-0.0990125384139609	0.6962688580721679	0.01215218405246043	-5.110412503866317	0	0	0.3706906276556605	0.06562767351675663	-0.08899891478168179	0.5187010755750917	0.009053041602421289	-5.110412503866317	0	0	0	0	0	0	-8.730359732833668	0	72.37561506381908	46.70285340496874	0	0	0	-8.730359732833668	0	72.37561506381908	46.70285340496874	0	0
85.773	-0.01176227605157887	0.1777228347075319	-95.2394566670677	0	0.9399999999999999	0	0.4982895273474465	0.2265430573723886	-0.08908784652933763	0.7058560907165756	0.01231951282826003	-5.110291990039487	0	0	0.4365556181610018	-0.04087879205630411	-0.09577945001374043	0.5108038879710308	0.008915209677082744	-5.110291990039487	0	0	0	0	0	0	-8.731150300192651	0	72.3762572384675	46.70171491122921	0	0	0	-8.731150300192651	0	72.3762572384675	46.70171491122921	0	0
86.991	-0.02125972188513333	0.2447224363404605	-95.24738949283716	0	0.9399999999999999	0	0.5257126570923133	0.212627165634138	-0.08836625852454331	0.7247514957369312	0.0126492998593631	-5.110227952331468	0	0	0.4991294339309044	-0.0505904842741359	-0.1041884374232028	0.5188253857023434	0.009055211223435404	-5.110227952331468	0	0	0	0	0	0	-8.731570079964989	0	72.37659791591464	46.70111072031431	0	0	0	-8.731570079964989	0	72.37659791591464	46.70111072031431	0	0
88.735	-0.09777487310542701	0.2734915436132491	-95.24714500996133	0	0.9399999999999999	0	0.4844718313394175	0.2723361534180394	-0.07393341283298516	0.6418025351168374	0.01120156738543534	-5.110124504704276	0	0	0.5198918754412795	-0.1251381986528137	-0.09973324438553115	0.5145218630941598	0.008980100584488587	-5.110124504704276	0	0	0	0	0	0	-8.732251243690675	0	72.37715051931448	46.70013276600282	0	0	0	-8.732251243690675	0	72.37715051931448	46.70013276600282	0	0
89.988	-0.06305262043131181	0.08738486153926345	-95.22817814897151	0	0.9399999999999999	0	0.3677862756024946	0.1890099981025013	-0.09489855585508988	0.6499858522105082	0.01134439321245463	-5.109999183306124	0	0	0.3479046672975865	-0.08159737728247739	-0.09206332002689852	0.5308429605013234	0.009264957471782301	-5.109999183306124	0	0	0	0	0	0	-8.73306859394317	0	72.37781441170148	46.69895238676767	0	0	0	-8.73306859394317	0	72.37781441170148	46.69895238676767	0	0
91.066	-0.08416513492502933	0.07135790457498056	-95.22778496963559	0	0.9399999999999999	0	0.379754344598351	0.2444599272055085	-0.09744263096991528	0.6878402721472203	0.01200507747678284	-5.109897207672896	0	0	0.3235402135048919	-0.09721570114102143	-0.08673894907038028	0.5138122968729939	0.008967716317668309	-5.109897207672896	0	0	0	0	0	0	-8.733727488888732	0	72.37835179661685	46.69799279508113	0	0	0	-8.733727488888732	0	72.37835179661685	46.69799279508113	0	0
92.354	-0.008933433503551818	0.01455306772751057	-95.21914368836974	0	0.9399999999999999	0	0.3434703734104707	0.1506923967529168	-0.1042717462571083	0.6807843600107065	0.01188192857826925	-5.109758109440596	0	0	0.2831855951485963	-0.01664008908558166	-0.07962494923787854	0.5162948598110175	0.009011045214824804	-5.109758109440596	0	0	0	0	0	0	-8.734642520050485	0	72.37909470166468	46.69667727216466	0	0	0	-8.734642520050485	0	72.37909470166468	46.69667727216466	0	0
94.06699999999999	-0.03421308450759894	0.0237907687433693	-95.22154488783329	0	0.9399999999999999	0	0.3045495950697575	0.05632566996738315	-0.1079998225176313	0.6735479153027876	0.01175562879197754	-5.109729641653391	0	0	0.3065759968769219	-0.05884738924372786	-0.08305688459196377	0.546747399734446	0.009542542302083653	-5.109729641653391	0	0	0	0	0	0	-8.734834328236412	0	72.37924911486819	46.69640687068777	0	0	0	-8.734834328236412	0	72.37924911486819	46.69640687068777	0	0
